HIERARCHY
ROOT Hips
{
  OFFSET 64.5269 100.592 -2.87728
  CHANNELS 6 Xposition Yposition Zposition Zrotation Xrotation Yrotation
  JOINT RightUpLeg
  {
    OFFSET -8.9458 -8.66707 0.101652
    CHANNELS 6 Xposition Yposition Zposition Zrotation Xrotation Yrotation
    JOINT RightLeg
    {
      OFFSET 0 -44.4227 1.3727
      CHANNELS 6 Xposition Yposition Zposition Zrotation Xrotation Yrotation
      JOINT RightFoot
      {
        OFFSET 0.253549 -42.0924 -1.46059
        CHANNELS 6 Xposition Yposition Zposition Zrotation Xrotation Yrotation
        JOINT RightToes
        {
          OFFSET 0.04 -4.41509 8.4991
          CHANNELS 6 Xposition Yposition Zposition Zrotation Xrotation Yrotation
          End Site
          {
            OFFSET -0.08 -0.137448 9.77979
          }
        }
      }
    }
  }
  JOINT Spine
  {
    OFFSET 0 11.8905 0
    CHANNELS 6 Xposition Yposition Zposition Zrotation Xrotation Yrotation
    JOINT Spine1
    {
      OFFSET 0 25.6574 0.127663
      CHANNELS 6 Xposition Yposition Zposition Zrotation Xrotation Yrotation
      JOINT HEad
      {
        OFFSET 0 8.73416 0.011341
        CHANNELS 6 Xposition Yposition Zposition Zrotation Xrotation Yrotation
        End Site
        {
          OFFSET -0.29 12.7742 2.51395
        }
      }
      JOINT LeftShoulder1
      {
        OFFSET 8.99 -0.362252 -0.22
        CHANNELS 6 Xposition Yposition Zposition Zrotation Xrotation Yrotation
        JOINT LeftArm
        {
          OFFSET 10.2827 -0.00337999 0.322123
          CHANNELS 6 Xposition Yposition Zposition Zrotation Xrotation Yrotation
          JOINT LeftForeArm
          {
            OFFSET 26.2597 0.099144 -1.42434
            CHANNELS 6 Xposition Yposition Zposition Zrotation Xrotation Yrotation
            JOINT LeftHand
            {
              OFFSET 22.0306 0.0855632 1.02404
              CHANNELS 6 Xposition Yposition Zposition Zrotation Xrotation Yrotation
              End Site
              {
                OFFSET 13.3827 -0.601419 1.50567
              }
            }
          }
        }
      }
      JOINT RightShoulder
      {
        OFFSET -8.99 -0.362252 -0.22
        CHANNELS 6 Xposition Yposition Zposition Zrotation Xrotation Yrotation
        JOINT RightArm
        {
          OFFSET -10.2827 -0.00338 0.322123
          CHANNELS 6 Xposition Yposition Zposition Zrotation Xrotation Yrotation
          JOINT RightForeArm
          {
            OFFSET -26.364 0.099144 -1.42434
            CHANNELS 6 Xposition Yposition Zposition Zrotation Xrotation Yrotation
            JOINT RightHand
            {
              OFFSET -22.029 0.0853627 1.0224
              CHANNELS 6 Xposition Yposition Zposition Zrotation Xrotation Yrotation
              End Site
              {
                OFFSET -13.2399 -0.600127 1.51802
              }
            }
          }
        }
      }
    }
  }
  JOINT LeftUpLeg
  {
    OFFSET 8.9458 -8.66707 0.101652
    CHANNELS 6 Xposition Yposition Zposition Zrotation Xrotation Yrotation
    JOINT LeftLeg
    {
      OFFSET 0 -44.4227 1.3727
      CHANNELS 6 Xposition Yposition Zposition Zrotation Xrotation Yrotation
      JOINT LeftFoot
      {
        OFFSET -0.253549 -42.0924 -1.46059
        CHANNELS 6 Xposition Yposition Zposition Zrotation Xrotation Yrotation
        JOINT LeftToes
        {
          OFFSET -0.04 -4.41509 8.4991
          CHANNELS 6 Xposition Yposition Zposition Zrotation Xrotation Yrotation
          End Site
          {
            OFFSET 0.08 -0.047448 9.77979
          }
        }
      }
    }
  }
}
MOTION
Frames:	6
Frame Time:	0.0333333
64.5098 100.594 -2.81341 -1.99194 6.26668 -5.87407 -8.9458 -8.66707 0.101652 -1.12932 -12.9365 -10.8808 2.84217e-014 -44.4227 1.3727 -0.132565 15.4071 0.183859 0.253549 -42.0924 -1.46059 -0.187513 7.618 21.1972 0.04 -4.41509 8.4991 0.0462048 0.000530889 0.662642 9.23706e-014 11.8905 7.10543e-015 2.49247 -1.07966 0.0405534 -1.42109e-014 25.6574 0.127663 3.02156 -2.12796 -0.245782 -1.42109e-014 8.73416 0.011341 1.73779 -7.73945 -0.173793 8.99 -0.362252 -0.22 -0.972742 -0.00931788 -10.6688 10.2827 -0.00337999 0.322123 109.266 -52.869 110.113 26.2597 0.099144 -1.42434 22.9252 79.0854 -26.3719 22.0299 0.0855616 1.02411 0.179158 9.98565 0.0750304 -8.99 -0.362252 -0.22 4.01411 0.199664 8.50152 -10.2827 -0.00338 0.322123 -70.8875 -69.2369 -61.9378 -26.364 0.099144 -1.42434 0.0742215 53.62 1.67884 -22.0267 0.085362 1.02257 -0.971651 10.1599 8.59925 8.9458 -8.66707 0.101652 5.77666 -7.41 9.72257 1.42109e-014 -44.4227 1.3727 0.00871222 12.2261 0.0665396 -0.253549 -42.0924 -1.46059 -0.295897 -0.108818 -12.1923 -0.04 -4.41509 8.4991 -1.3023e-009 8.75213e-006 -1.46954e-008 
64.5269 100.592 -2.87728 -2.00772 6.23776 -5.79155 -8.9458 -8.66707 0.101652 -1.14322 -12.9495 -10.9303 2.13163e-014 -44.4227 1.3727 -0.132659 15.4355 0.183884 0.253549 -42.0924 -1.46059 -0.189607 7.59177 21.1496 0.04 -4.41509 8.4991 0.0462048 0.000530889 0.662642 1.13687e-013 11.8905 3.55271e-015 2.51201 -1.08035 0.0405534 -1.42109e-014 25.6574 0.127663 3.03161 -2.13345 -0.245783 -1.42109e-014 8.73416 0.011341 1.71682 -7.77355 -0.416698 8.99 -0.362252 -0.22 -0.876495 -0.00931595 -10.7317 10.2827 -0.00337999 0.322123 110.402 -52.744 111.187 26.2597 0.099144 -1.42434 24.5522 79.7351 -27.9502 22.0306 0.0855632 1.02404 0.243566 9.97152 -0.0334305 -8.99 -0.362252 -0.22 3.94978 0.199689 8.4531 -10.2827 -0.00338 0.322123 -78.4359 -70.3593 -68.7863 -26.364 0.099144 -1.42434 0.433143 56.1851 0.951138 -22.029 0.0853627 1.0224 -1.28589 10.1804 8.96129 8.9458 -8.66707 0.101652 5.78283 -7.47899 9.68115 0 -44.4227 1.3727 0.00859948 12.3209 0.0665636 -0.253549 -42.0924 -1.46059 -0.30359 -0.143906 -12.235 -0.04 -4.41509 8.4991 -1.3023e-009 8.75213e-006 -1.46954e-008 
64.5472 100.589 -2.95018 -2.03121 6.21323 -5.71151 -8.9458 -8.66707 0.101652 -1.13381 -12.967 -10.8755 3.55271e-014 -44.4227 1.3727 -0.132705 15.4492 0.183896 0.253549 -42.0924 -1.46059 -0.189152 7.61598 21.0448 0.04 -4.41509 8.4991 0.0462048 0.000530889 0.662642 8.52651e-014 11.8905 7.10543e-015 2.49654 -1.06958 0.0422147 -1.42109e-014 25.6574 0.127663 3.00233 -2.11596 -0.243444 -2.84217e-014 8.73416 0.011341 1.61652 -7.88023 -0.590629 8.99 -0.362252 -0.22 -0.832635 -0.0093125 -10.843 10.2827 -0.00337999 0.322123 109.747 -52.9311 110.728 26.2597 0.099144 -1.42434 25.0036 79.5161 -28.5062 22.0263 0.085579 1.02416 0.180625 9.97238 -0.0910941 -8.99 -0.362252 -0.22 3.87626 0.199684 8.46256 -10.2827 -0.00338 0.322123 -77.5011 -70.0969 -68.0791 -26.364 0.099144 -1.42434 0.362954 55.715 1.08432 -22.0287 0.0853625 1.02242 -1.24821 10.1868 9.03699 8.9458 -8.66707 0.101652 5.78571 -7.5303 9.55721 2.84217e-014 -44.4227 1.3727 0.00855611 12.3574 0.0665728 -0.253549 -42.0924 -1.46059 -0.306449 -0.157399 -12.2118 -0.04 -4.41509 8.4991 -1.3023e-009 8.75213e-006 -1.46954e-008 
64.5598 100.589 -3.01199 -2.04164 6.19333 -5.67456 -8.9458 -8.66707 0.101652 -1.13451 -12.998 -10.881 3.55271e-014 -44.4227 1.3727 -0.132809 15.4804 0.183924 0.253549 -42.0924 -1.46059 -0.188971 7.64471 21.0024 0.04 -4.41509 8.4991 0.0462048 0.000530889 0.662642 1.06581e-013 11.8905 3.55271e-015 2.48324 -1.05862 0.0309228 -1.42109e-014 25.6574 0.127663 2.98441 -2.09624 -0.264958 -1.42109e-014 8.73416 0.011341 1.48476 -7.96189 -0.662665 8.99 -0.362252 -0.22 -0.817316 -0.00931076 -10.8986 10.2827 -0.00337999 0.322123 109.843 -52.9564 110.855 26.2597 0.099144 -1.42434 25.7201 79.4758 -29.2961 22.0228 0.0855923 1.02425 0.254174 9.97282 0.0037777 -8.99 -0.362252 -0.22 3.85228 0.199676 8.47761 -10.2827 -0.00338 0.322123 -77.6146 -70.1036 -68.2586 -26.364 0.099144 -1.42434 0.306783 55.7426 1.17895 -22.0285 0.0853623 1.02244 -1.22155 10.1936 9.12395 8.9458 -8.66707 0.101652 5.79243 -7.55816 9.54499 2.84217e-014 -44.4227 1.3727 0.00854504 12.3667 0.0665752 -0.253549 -42.0924 -1.46059 -0.306282 -0.152313 -12.2587 -0.04 -4.41509 8.4991 -1.3023e-009 8.75213e-006 -1.46954e-008 
64.5775 100.586 -3.07459 -2.05546 6.1844 -5.67532 -8.9458 -8.66707 0.101652 -1.13211 -13.046 -10.8999 2.13163e-014 -44.4227 1.3727 -0.132926 15.5155 0.183955 0.253549 -42.0924 -1.46059 -0.186808 7.6679 21.0136 0.04 -4.41509 8.4991 0.0462048 0.000530889 0.662642 9.9476e-014 11.8905 3.55271e-015 2.46079 -1.03431 0.00369182 0 25.6574 0.127663 2.95574 -2.05193 -0.315508 0 8.73416 0.011341 1.39654 -8.05853 -0.605683 8.99 -0.362252 -0.22 -0.807001 -0.00931115 -10.8863 10.2827 -0.00337999 0.322123 109.868 -52.9454 110.915 26.2597 0.099144 -1.42434 26.1592 79.3316 -29.8183 22.0191 0.0856061 1.02435 0.341725 9.97303 0.0492534 -8.99 -0.362252 -0.22 3.81714 0.19963 8.56558 -10.2827 -0.00338 0.322123 -77.7614 -70.1635 -68.5461 -26.364 0.099144 -1.42434 0.243079 55.7637 1.28741 -22.0282 0.0853622 1.02246 -1.27259 10.1954 9.18762 8.9458 -8.66707 0.101652 5.80187 -7.59456 9.57253 4.26326e-014 -44.4227 1.3727 0.00851555 12.3915 0.0665815 -0.253549 -42.0924 -1.46059 -0.304639 -0.201952 -12.2951 -0.04 -4.41509 8.4991 -1.3023e-009 8.75213e-006 -1.46954e-008 
64.5871 100.585 -3.12921 -2.06656 6.17614 -5.68501 -8.9458 -8.66707 0.101652 -1.13764 -13.0759 -10.9912 2.84217e-014 -44.4227 1.3727 -0.132946 15.5217 0.183961 0.253549 -42.0924 -1.46059 -0.184945 7.69021 21.1156 0.04 -4.41509 8.4991 0.0462048 0.000530889 0.662642 1.13687e-013 11.8905 3.55271e-015 2.45113 -1.02299 -0.00230643 0 25.6574 0.127663 2.93827 -2.03257 -0.325729 0 8.73416 0.011341 1.30031 -8.03767 -0.578137 8.99 -0.362252 -0.22 -0.817527 -0.00931085 -10.8958 10.2827 -0.00337999 0.322123 109.815 -52.9915 110.912 26.2597 0.099144 -1.42434 26.7333 79.3387 -30.4388 22.0167 0.0856157 1.02441 0.299654 9.97319 0.0707694 -8.99 -0.362252 -0.22 3.82756 0.199612 8.60126 -10.2827 -0.00338 0.322123 -77.8 -70.2034 -68.6516 -26.364 0.099144 -1.42434 0.207821 55.7979 1.34622 -22.028 0.0853621 1.02248 -1.22815 10.1967 9.16042 8.9458 -8.66707 0.101652 5.80854 -7.62754 9.50815 2.84217e-014 -44.4227 1.3727 0.00848609 12.4162 0.0665878 -0.253549 -42.0924 -1.46059 -0.303832 -0.223898 -12.2466 -0.04 -4.41509 8.4991 -1.3023e-009 8.75213e-006 -1.46954e-008 
